<?xml version="1.0" standalone="no"?>
<!DOCTYPE svg PUBLIC "-//W3C//DTD SVG 20010904//EN"
 "http://www.w3.org/TR/2001/REC-SVG-20010904/DTD/svg10.dtd">
<svg version="1.0" xmlns="http://www.w3.org/2000/svg"
 width="1192.000000pt" height="1192.000000pt" viewBox="0 0 1192.000000 1192.000000"
 preserveAspectRatio="xMidYMid meet">
<metadata>
Created by potrace 1.14, written by Peter Selinger 2001-2017
</metadata>
<g transform="translate(0.000000,1192.000000) scale(0.100000,-0.100000)"
fill="#000000" stroke="none">
<path d="M808 11916 c-1 -2 -39 -6 -84 -10 -166 -13 -349 -99 -469 -222 -181
-185 -258 -442 -210 -703 19 -100 78 -227 148 -316 33 -43 743 -764 1632
-1660 143 -144 282 -276 308 -294 75 -51 190 -100 280 -120 81 -18 257 -22
303 -7 17 5 70 -44 317 -295 163 -165 297 -304 297 -308 0 -4 -21 -34 -46 -66
-47 -61 -215 -308 -227 -335 -4 -8 -17 -31 -28 -50 -219 -363 -405 -910 -454
-1336 -4 -32 -9 -68 -11 -78 -23 -125 -23 -655 0 -796 2 -14 7 -51 11 -84 7
-59 9 -76 20 -131 3 -16 8 -48 11 -70 27 -176 147 -566 234 -760 127 -281 247
-490 408 -708 l65 -88 -444 -439 -444 -440 -25 28 c-77 87 -166 205 -282 377
-253 376 -464 815 -599 1245 -34 108 -74 252 -84 300 -2 8 -8 33 -14 56 -12
46 -56 276 -71 369 -5 33 -12 78 -15 100 -3 22 -8 65 -11 95 -3 30 -7 73 -9
95 -25 237 -24 698 0 910 19 163 26 223 30 245 2 14 11 68 19 120 21 127 23
137 60 295 98 421 266 858 478 1238 l60 107 -303 305 c-237 238 -306 302 -315
293 -39 -43 -246 -415 -335 -603 -54 -115 -143 -321 -173 -402 -68 -187 -113
-317 -142 -418 -39 -130 -99 -363 -107 -410 -3 -17 -17 -88 -31 -160 -27 -135
-41 -225 -51 -310 -3 -27 -8 -61 -10 -75 -2 -14 -7 -61 -10 -105 -4 -44 -9
-87 -10 -96 -8 -41 -19 -323 -18 -489 0 -290 26 -652 57 -817 3 -11 7 -44 11
-74 9 -73 61 -336 87 -434 11 -44 22 -90 24 -102 2 -12 20 -77 40 -145 226
-785 605 -1491 1141 -2127 111 -130 542 -569 580 -589 20 -11 38 6 1077 1035
229 226 420 415 426 418 6 4 32 -11 58 -33 63 -52 275 -196 386 -261 394 -231
885 -401 1321 -457 28 -3 59 -8 69 -10 101 -19 598 -27 763 -12 79 8 208 24
254 33 13 3 41 7 64 10 64 10 283 62 375 90 47 14 92 28 100 30 245 67 695
291 957 477 304 215 596 494 798 763 33 44 62 82 65 85 12 11 113 164 166 252
212 350 381 787 453 1173 28 150 30 162 37 225 3 30 8 63 10 73 24 128 23 626
-1 807 -2 19 -7 55 -10 80 -45 359 -165 754 -333 1100 -226 467 -582 915 -981
1236 -13 10 -28 24 -35 29 -30 28 -152 115 -251 180 -409 270 -852 448 -1345
540 -14 3 -36 7 -50 10 -14 3 -41 7 -60 9 -19 2 -57 7 -85 10 -27 4 -66 8 -85
11 -174 22 -586 21 -745 -1 -16 -2 -49 -6 -72 -8 -35 -4 -107 -16 -268 -43
-63 -10 -334 -82 -425 -113 -376 -125 -751 -322 -1040 -546 l-55 -43 -301 306
-302 305 9 36 c15 67 4 270 -20 344 -52 161 -106 242 -281 419 -535 541 -1624
1641 -1665 1682 -143 142 -308 226 -478 242 -34 4 -67 8 -74 10 -6 2 -13 2
-15 1z m5571 -3420 c109 -8 126 -10 276 -36 145 -26 140 -25 252 -55 312 -85
649 -248 905 -437 452 -334 779 -765 972 -1282 35 -93 100 -315 112 -381 3
-16 9 -48 14 -70 5 -22 11 -60 14 -85 3 -25 7 -54 10 -65 25 -126 27 -589 2
-720 -2 -11 -7 -42 -10 -70 -4 -27 -9 -57 -11 -65 -2 -8 -6 -31 -9 -50 -11
-74 -58 -246 -97 -362 -91 -268 -204 -484 -399 -763 -54 -77 -205 -247 -306
-345 -298 -287 -666 -511 -1052 -639 -94 -31 -298 -85 -362 -95 -19 -3 -61
-10 -94 -15 -32 -6 -90 -13 -130 -16 -39 -4 -82 -9 -96 -11 -31 -5 -360 -5
-415 0 -59 6 -158 18 -177 21 -9 2 -38 7 -65 10 -26 4 -95 18 -153 31 -652
146 -1236 528 -1638 1072 -219 296 -406 705 -468 1022 -2 14 -7 32 -10 40 -3
8 -7 29 -10 45 -2 17 -5 39 -8 50 -28 144 -40 289 -41 490 0 145 8 299 19 365
3 14 7 43 11 65 3 22 7 47 10 55 2 8 6 32 10 54 9 67 55 237 95 357 161 481
477 938 867 1255 38 30 76 62 86 70 41 33 207 144 289 192 99 58 311 162 331
162 7 0 17 4 22 9 17 15 216 81 350 116 153 40 350 72 490 81 55 3 101 7 102
8 4 4 215 -2 312 -8z"/>
<path d="M6028 7955 c-2 -1 -37 -5 -78 -9 -41 -3 -84 -8 -95 -10 -11 -2 -40
-7 -65 -11 -85 -14 -95 -16 -175 -36 -98 -25 -242 -74 -312 -105 -29 -13 -79
-36 -110 -50 -76 -34 -230 -125 -318 -187 -291 -207 -547 -503 -705 -818 -52
-101 -121 -271 -108 -263 5 3 13 16 18 27 4 12 42 71 84 130 317 452 759 778
1273 940 77 25 187 53 243 63 14 2 48 9 75 14 214 39 465 45 725 16 30 -4 62
-9 70 -11 8 -2 32 -6 52 -9 204 -30 510 -138 730 -258 372 -202 738 -552 925
-885 42 -74 41 -64 -2 50 -83 214 -211 429 -363 610 -316 375 -738 635 -1217
748 -114 27 -108 26 -185 34 -36 4 -74 9 -85 11 -23 5 -372 14 -377 9z"/>
<path d="M6195 11014 l0 -419 25 -1 c201 -9 332 -16 360 -19 19 -2 62 -6 95
-10 104 -10 148 -16 205 -25 30 -5 71 -12 90 -14 74 -10 150 -25 280 -56 74
-17 144 -33 155 -35 110 -24 427 -131 615 -207 210 -86 547 -255 680 -342 19
-13 88 -58 154 -101 281 -183 531 -389 781 -641 55 -56 124 -128 153 -160 29
-32 64 -72 78 -87 29 -33 211 -261 236 -297 10 -14 32 -45 50 -70 333 -465
620 -1091 751 -1640 25 -103 46 -197 52 -233 18 -100 35 -197 40 -237 3 -25 8
-56 10 -70 25 -164 39 -388 39 -625 0 -151 -10 -395 -18 -465 -2 -14 -7 -56
-10 -93 -4 -37 -9 -76 -11 -85 -1 -9 -6 -39 -9 -67 -18 -131 -63 -353 -106
-523 -245 -948 -793 -1832 -1526 -2459 -27 -23 -62 -54 -79 -68 -70 -61 -340
-259 -460 -338 -333 -217 -724 -407 -1100 -534 -181 -61 -539 -153 -690 -177
-182 -29 -242 -38 -375 -51 -30 -3 -73 -8 -95 -10 -22 -2 -123 -7 -225 -11
-102 -3 -188 -8 -191 -10 -3 -2 -7 -190 -8 -419 l-2 -416 198 6 c109 3 214 7
233 9 19 2 76 7 125 11 50 3 117 10 150 15 33 5 83 11 110 15 28 3 77 10 110
16 33 6 73 13 90 15 120 15 487 102 675 160 192 59 429 145 565 204 22 10 69
30 105 45 198 86 512 257 789 430 41 26 268 185 296 207 6 4 60 47 120 94 407
320 764 689 1068 1104 59 80 111 150 117 157 5 7 10 14 10 17 0 3 19 33 43 68
188 274 409 703 558 1078 92 235 208 620 255 850 16 79 34 169 39 195 6 32 30
191 40 265 3 25 8 56 10 70 2 14 7 57 10 95 3 39 7 84 9 100 24 181 24 856 1
976 -2 11 -7 56 -10 100 -4 45 -8 89 -10 98 -1 9 -6 41 -10 71 -87 696 -337
1441 -693 2065 -90 158 -288 468 -303 473 -5 2 -9 8 -9 13 0 12 -155 215 -265
349 -291 352 -669 705 -1050 981 -96 70 -343 233 -400 265 -59 33 -101 57
-110 64 -15 11 -136 76 -250 135 -242 123 -601 272 -825 340 -30 9 -62 19 -70
21 -8 3 -16 5 -18 5 -1 -1 -18 5 -37 13 -19 8 -35 13 -35 11 0 -3 -12 0 -27 6
-99 37 -509 127 -713 155 -19 2 -44 6 -55 9 -11 2 -47 7 -80 10 -33 3 -71 8
-84 10 -13 2 -61 7 -105 10 -45 4 -92 8 -106 11 -14 2 -110 7 -215 10 l-190 6
0 -418z"/>
</g>
</svg>
