<?xml version="1.0" standalone="no"?>
<!DOCTYPE svg PUBLIC "-//W3C//DTD SVG 20010904//EN"
 "http://www.w3.org/TR/2001/REC-SVG-20010904/DTD/svg10.dtd">
<svg version="1.0" xmlns="http://www.w3.org/2000/svg"
 width="399.000000pt" height="399.000000pt" viewBox="0 0 399.000000 399.000000"
 preserveAspectRatio="xMidYMid meet">
<metadata>
Created by potrace 1.14, written by Peter Selinger 2001-2017
</metadata>
<g transform="translate(0.000000,399.000000) scale(0.100000,-0.100000)"
fill="#000000" stroke="none">
<path d="M0 1995 l0 -1995 1995 0 1995 0 0 1995 0 1995 -1995 0 -1995 0 0
-1995z m418 1894 c43 -11 72 -37 360 -323 197 -195 325 -330 343 -361 23 -40
29 -62 29 -110 l0 -60 91 -98 c50 -53 94 -97 98 -97 5 0 39 21 77 47 204 137
433 201 688 190 532 -22 967 -393 1079 -917 26 -122 27 -320 4 -441 -107 -545
-581 -939 -1130 -939 -224 0 -463 72 -637 191 -36 25 -71 49 -78 53 -10 6 -83
-60 -247 -224 l-233 -233 -44 37 c-90 76 -235 253 -318 392 -325 537 -345
1215 -53 1774 30 58 60 111 67 117 9 10 31 -7 105 -81 l93 -94 -25 -43 c-43
-73 -97 -208 -128 -319 -128 -456 -41 -941 239 -1332 30 -43 59 -78 64 -78 4
0 72 62 149 138 l141 138 -45 64 c-266 384 -267 917 -2 1296 25 36 45 70 45
77 0 7 -40 53 -90 102 l-90 89 -59 2 c-104 2 -122 17 -456 357 -175 177 -315
328 -327 351 -31 62 -28 149 8 216 58 107 158 149 282 119z m1932 -169 c376
-61 707 -230 980 -500 294 -290 470 -645 525 -1055 68 -515 -95 -1048 -442
-1438 -315 -355 -780 -583 -1231 -604 l-133 -6 3 129 3 129 108 7 c204 12 428
75 615 173 351 183 626 505 751 880 203 610 9 1290 -484 1695 -232 190 -544
322 -820 345 -38 3 -89 8 -112 11 l-43 5 0 129 0 129 83 -5 c45 -3 134 -14
197 -24z"/>
<path d="M1870 2801 c-357 -79 -626 -357 -690 -713 -16 -85 -14 -251 3 -334
44 -208 168 -407 330 -530 75 -57 238 -136 327 -158 91 -23 250 -31 340 -17
298 47 540 222 670 486 66 134 93 246 93 395 0 406 -260 748 -655 860 -107 31
-305 36 -418 11z m345 -180 c97 -24 142 -42 214 -88 110 -70 198 -164 251
-268 25 -47 26 -53 8 -30 -111 145 -262 248 -435 297 -92 25 -262 30 -358 9
-176 -38 -339 -139 -447 -274 -53 -68 -48 -44 10 44 100 153 277 278 442 313
95 21 221 19 315 -3z"/>
</g>
</svg>
