<?xml version="1.0" standalone="no"?>
<!DOCTYPE svg PUBLIC "-//W3C//DTD SVG 20010904//EN"
 "http://www.w3.org/TR/2001/REC-SVG-20010904/DTD/svg10.dtd">
<svg version="1.0" xmlns="http://www.w3.org/2000/svg"
 width="512.000000pt" height="512.000000pt" viewBox="0 0 512.000000 512.000000"
 preserveAspectRatio="xMidYMid meet">
<metadata>
Created by potrace 1.14, written by Peter Selinger 2001-2017
</metadata>
<g transform="translate(0.000000,512.000000) scale(0.100000,-0.100000)"
fill="#000000" stroke="none">
<path d="M982 4552 c-103 -37 -160 -123 -149 -226 15 -143 163 -298 369 -384
53 -23 78 -27 158 -27 84 0 101 3 146 27 180 95 182 284 6 449 -112 106 -245
165 -397 174 -63 5 -91 2 -133 -13z"/>
<path d="M2374 4206 c-276 -53 -512 -197 -680 -416 -49 -64 -154 -260 -154
-288 0 -8 -6 -12 -12 -9 -159 70 -228 88 -373 94 -232 10 -420 -56 -566 -201
-135 -133 -194 -304 -155 -453 31 -122 83 -204 239 -376 180 -198 245 -307
254 -421 13 -151 -81 -233 -359 -312 -149 -42 -231 -87 -312 -168 -75 -75
-127 -157 -160 -256 -51 -155 -42 -292 30 -440 51 -104 178 -230 284 -282 238
-116 494 -75 747 121 48 37 189 171 313 297 l224 229 7 -40 c15 -84 50 -136
131 -198 97 -73 234 -126 423 -164 128 -25 482 -25 610 0 165 33 312 85 384
136 16 12 31 21 34 21 3 0 35 -42 71 -94 131 -187 229 -280 371 -347 131 -63
218 -82 375 -82 117 0 147 4 225 27 225 68 405 223 510 439 220 458 -48 890
-718 1157 -139 55 -199 94 -227 149 -66 131 34 283 265 398 33 17 148 63 255
103 231 86 311 124 403 194 163 122 259 329 242 524 -23 275 -204 493 -465
558 -115 29 -287 16 -520 -39 -245 -57 -341 -71 -446 -64 -82 6 -97 10 -454
135 -63 22 -151 47 -195 55 -116 22 -509 30 -601 13z m322 -97 c220 -30 428
-138 581 -302 80 -86 116 -139 168 -250 83 -175 113 -369 81 -525 -52 -257
-253 -648 -590 -1147 -158 -234 -363 -515 -376 -515 -13 0 -218 281 -376 515
-188 278 -327 512 -429 720 -177 360 -209 540 -140 794 42 155 117 289 228
408 220 235 535 346 853 302z m-298 -2704 c171 -228 153 -228 322 -3 69 92
128 169 131 172 3 4 50 -5 104 -19 231 -58 379 -170 360 -271 -10 -57 -75
-118 -179 -170 -308 -152 -839 -152 -1151 0 -105 51 -170 112 -180 170 -19
100 128 212 356 271 52 13 97 23 102 22 4 -1 65 -79 135 -172z"/>
<path d="M2465 3831 c-166 -27 -279 -84 -400 -206 -74 -73 -99 -106 -133 -175
-53 -108 -72 -190 -72 -311 0 -306 190 -568 485 -666 71 -24 96 -27 215 -27
119 0 144 3 215 27 295 98 485 360 485 666 0 121 -19 203 -72 311 -55 111
-186 247 -293 302 -127 66 -304 99 -430 79z m285 -130 c184 -64 330 -215 384
-400 9 -30 16 -58 16 -63 0 -4 -120 -8 -268 -8 -226 0 -271 -2 -290 -16 -26
-18 -28 -50 -5 -76 15 -17 38 -18 295 -18 l280 0 -7 -52 c-22 -169 -123 -332
-262 -424 -32 -21 -96 -51 -143 -68 -74 -26 -99 -30 -190 -30 -91 0 -116 4
-190 30 -47 17 -112 47 -143 68 -69 46 -154 137 -191 206 l-27 50 172 0 c187
0 209 6 209 56 0 47 -29 54 -231 54 l-186 0 -7 46 c-8 59 -8 123 0 163 l7 31
101 0 c110 0 146 13 146 52 0 46 -26 58 -122 58 -48 0 -88 2 -88 5 0 3 10 25
21 48 72 144 221 260 386 302 85 21 250 14 333 -14z"/>
<path d="M2446 3494 c-23 -22 -20 -60 6 -78 17 -12 49 -16 130 -16 95 0 110 2
128 20 24 24 25 38 4 68 -14 21 -23 22 -134 22 -94 0 -122 -3 -134 -16z"/>
<path d="M2698 2889 c-26 -15 -23 -64 4 -83 25 -18 112 -21 152 -6 34 12 44
54 21 80 -15 16 -31 20 -89 20 -39 0 -79 -5 -88 -11z"/>
</g>
</svg>
