<?xml version="1.0" encoding="utf-8"?>
<svg viewBox="0 0 464 135" xmlns="http://www.w3.org/2000/svg">
  <defs>
    <style>
      .cls-1, .cls-2 {
        fill: #0b1e35;
        stroke-width: 0px;
      }

      .cls-2 {
        fill-rule: evenodd;
      }
    </style>
  </defs>
  <path class="cls-2" d="M 4.429 4.383 L 66.899 106.173 C 77.519 106.233 87.149 101.973 94.149 95.053 C 101.149 88.133 105.499 78.543 105.559 67.923 C 105.609 57.323 101.359 47.683 94.429 40.683 L 94.439 40.683 C 87.519 33.673 77.929 29.323 67.309 29.263 C 58.289 29.213 49.979 32.273 43.389 37.443 L 36.999 30.983 C 37.579 28.353 36.859 25.483 34.829 23.433 L 16.019 4.423 C 12.849 1.213 7.629 1.193 4.419 4.363 C 1.219 7.533 1.189 12.753 4.359 15.963 L 23.169 34.973 C 25.199 37.023 28.059 37.773 30.689 37.223 L 37.079 43.683 C 31.849 50.213 28.699 58.493 28.649 67.513 C 28.599 76.533 31.659 84.843 36.829 91.433 L 27.349 100.813 C 19.819 91.773 15.309 80.133 15.379 67.443 C 15.429 58.013 17.999 49.183 22.449 41.593 L 16.019 35.103 C 10.049 44.433 6.569 55.503 6.509 67.393 C 6.419 84.123 13.119 99.313 24.029 110.333 C 25.069 111.383 26.149 112.393 27.269 113.373 L 33.599 107.113 L 38.519 102.243 L 43.079 97.723 C 49.609 102.963 57.889 106.113 66.909 106.153 L 4.429 4.383 Z M 87.909 88.743 C 82.529 94.073 75.119 97.343 66.949 97.303 C 58.779 97.263 51.399 93.913 46.079 88.523 C 40.749 83.143 37.479 75.723 37.519 67.563 C 37.559 59.393 40.909 52.013 46.299 46.693 C 51.679 41.373 59.089 38.093 67.259 38.143 C 75.429 38.183 82.809 41.533 88.129 46.913 L 88.139 46.913 C 93.459 52.273 96.729 59.693 96.679 67.873 C 96.639 76.043 93.289 83.423 87.909 88.743 Z M 48.889 54.403 C 53.589 49.743 60.069 46.883 67.219 46.923 C 74.359 46.963 80.809 49.883 85.469 54.593 L 85.479 54.593 C 87.089 56.213 88.489 58.053 89.619 60.063 C 88.449 56.613 86.509 53.513 84.009 50.983 L 83.999 50.983 C 79.719 46.673 73.799 43.983 67.229 43.943 C 60.669 43.913 54.709 46.533 50.389 50.813 C 47.849 53.323 45.869 56.413 44.669 59.853 C 45.829 57.843 47.249 56.013 48.889 54.393 L 48.889 54.403 Z M 110.179 25.093 C 99.269 14.073 84.159 7.213 67.429 7.123 L 67.379 15.993 C 81.659 16.063 94.559 21.923 103.879 31.333 C 113.189 40.743 118.909 53.703 118.839 67.983 C 118.769 82.263 112.909 95.163 103.499 104.483 C 94.089 113.793 81.129 119.513 66.849 119.443 L 66.799 128.313 C 83.529 128.403 98.719 121.693 109.739 110.793 C 120.759 99.883 127.619 84.773 127.709 68.033 C 127.799 51.303 121.089 36.113 110.189 25.093 L 110.179 25.093 Z"/>
  <g transform="matrix(1, 0, 0, 1, -190.37112426757812, -232.69740295410156)">
    <path class="cls-1" d="M368.18,255.42c21.56,0,32.34,11.02,32.34,24.31,0,9.66-2.19,22.7-16.56,26.11l21.05,28.87h-20.59l-19.92-25.35h-11.96v25.35h-17.96v-79.29h33.62ZM367.54,268.6h-15.01v23.29h15.01c10.01,0,14.5-4.66,14.5-11.81s-4.49-11.47-14.5-11.47Z"/>
    <path class="cls-1" d="M428.93,334.29c-17.14,0-29.6-11.38-29.6-29.05s12.14-29.05,29.6-29.05,29.07,11.07,29.07,27.83c0,1.83-.11,3.66-.43,5.48h-41.53c.75,8.33,5.12,13,12.57,13,6.39,0,9.62-1.63,11.53-5.38l15.93-.14c-3.19,10.36-12.56,17.3-27.14,17.3ZM416.5,298.76h25.96c-.2-6.04-5.92-9.85-13.03-9.85-6.61,0-11.85,3.56-12.93,9.85Z"/>
    <path class="cls-1" d="M539.95,334.71c-17.14,0-29.6-11.38-29.6-29.05s12.14-29.05,29.6-29.05,29.07,11.07,29.07,27.83c0,1.83-.11,3.66-.43,5.48h-41.53c.75,8.33,5.12,13,12.57,13,6.39,0,9.62-1.63,11.53-5.38l15.93-.14c-3.19,10.36-12.56,17.3-27.14,17.3ZM527.51,299.18h25.96c-.2-6.04-5.92-9.85-13.03-9.85-6.61,0-11.85,3.56-12.93,9.85Z"/>
    <path class="cls-1" d="M468.71,277.45l15.53,36.3,15.64-36.3h16.58l-24.42,57.26h-14.67l-25.35-57.26h16.69Z"/>
    <path class="cls-1" d="M596.95,277.03c9.09,0,15.32,1.61,18.69,6.21v-5.31h14.4v56.36h-14.4v-6.83c-3.37,4.8-9.81,6.83-18.79,6.83-14.3,0-25.74-11.51-25.74-28.83s11.44-28.43,25.84-28.43ZM600.63,289.35c-7.66,0-14.91,5.61-14.91,16.12s7.25,16.52,14.91,16.52,15.01-5.81,15.01-16.32-7.15-16.32-15.01-16.32Z"/>
    <path class="cls-1" d="M634.25,251.5h16.19v82.79h-16.19v-82.79Z"/>
  </g>
</svg>