<?xml version="1.0" encoding="utf-8"?>
<svg viewBox="0 0 464 135" xmlns="http://www.w3.org/2000/svg">
  <defs>
    <style>
      .cls-1, .cls-2 {
        fill: #e54d1f;
        stroke-width: 0px;
      }

      .cls-2 {
        fill-rule: evenodd;
      }
    </style>
  </defs>
  <path class="cls-2" d="M 4.8 6.08 L 67.27 107.87 C 77.89 107.93 87.52 103.67 94.52 96.75 C 101.52 89.83 105.87 80.24 105.93 69.62 C 105.98 59.02 101.73 49.38 94.8 42.38 L 94.81 42.38 C 87.89 35.37 78.3 31.02 67.68 30.96 C 58.66 30.91 50.35 33.97 43.76 39.14 L 37.37 32.68 C 37.95 30.05 37.23 27.18 35.2 25.13 L 16.39 6.12 C 13.22 2.91 8 2.89 4.79 6.06 C 1.59 9.23 1.56 14.45 4.73 17.66 L 23.54 36.67 C 25.57 38.72 28.43 39.47 31.06 38.92 L 37.45 45.38 C 32.22 51.91 29.07 60.19 29.02 69.21 C 28.97 78.23 32.03 86.54 37.2 93.13 L 27.72 102.51 C 20.19 93.47 15.68 81.83 15.75 69.14 C 15.8 59.71 18.37 50.88 22.82 43.29 L 16.39 36.8 C 10.42 46.13 6.94 57.2 6.88 69.09 C 6.79 85.82 13.49 101.01 24.4 112.03 C 25.44 113.08 26.52 114.09 27.64 115.07 L 33.97 108.81 L 38.89 103.94 L 43.45 99.42 C 49.98 104.66 58.26 107.81 67.28 107.85 L 4.8 6.08 Z M 88.28 90.44 C 82.9 95.77 75.49 99.04 67.32 99 C 59.15 98.96 51.77 95.61 46.45 90.22 C 41.12 84.84 37.85 77.42 37.89 69.26 C 37.93 61.09 41.28 53.71 46.67 48.39 C 52.05 43.07 59.46 39.79 67.63 39.84 C 75.8 39.88 83.18 43.23 88.5 48.61 L 88.51 48.61 C 93.83 53.97 97.1 61.39 97.05 69.57 C 97.01 77.74 93.66 85.12 88.28 90.44 Z M 49.26 56.1 C 53.96 51.44 60.44 48.58 67.59 48.62 C 74.73 48.66 81.18 51.58 85.84 56.29 L 85.85 56.29 C 87.46 57.91 88.86 59.75 89.99 61.76 C 88.82 58.31 86.88 55.21 84.38 52.68 L 84.37 52.68 C 80.09 48.37 74.17 45.68 67.6 45.64 C 61.04 45.61 55.08 48.23 50.76 52.51 C 48.22 55.02 46.24 58.11 45.04 61.55 C 46.2 59.54 47.62 57.71 49.26 56.09 L 49.26 56.1 Z M 110.55 26.79 C 99.64 15.77 84.53 8.91 67.8 8.82 L 67.75 17.69 C 82.03 17.76 94.93 23.62 104.25 33.03 C 113.56 42.44 119.28 55.4 119.21 69.68 C 119.14 83.96 113.28 96.86 103.87 106.18 C 94.46 115.49 81.5 121.21 67.22 121.14 L 67.17 130.01 C 83.9 130.1 99.09 123.39 110.11 112.49 C 121.13 101.58 127.99 86.47 128.08 69.73 C 128.17 53 121.46 37.81 110.56 26.79 L 110.55 26.79 Z"/>
  <g transform="matrix(1, 0, 0, 1, -190, -231)">
    <path class="cls-1" d="M368.18,255.42c21.56,0,32.34,11.02,32.34,24.31,0,9.66-2.19,22.7-16.56,26.11l21.05,28.87h-20.59l-19.92-25.35h-11.96v25.35h-17.96v-79.29h33.62ZM367.54,268.6h-15.01v23.29h15.01c10.01,0,14.5-4.66,14.5-11.81s-4.49-11.47-14.5-11.47Z"/>
    <path class="cls-1" d="M428.93,334.29c-17.14,0-29.6-11.38-29.6-29.05s12.14-29.05,29.6-29.05,29.07,11.07,29.07,27.83c0,1.83-.11,3.66-.43,5.48h-41.53c.75,8.33,5.12,13,12.57,13,6.39,0,9.62-1.63,11.53-5.38l15.93-.14c-3.19,10.36-12.56,17.3-27.14,17.3ZM416.5,298.76h25.96c-.2-6.04-5.92-9.85-13.03-9.85-6.61,0-11.85,3.56-12.93,9.85Z"/>
    <path class="cls-1" d="M539.95,334.71c-17.14,0-29.6-11.38-29.6-29.05s12.14-29.05,29.6-29.05,29.07,11.07,29.07,27.83c0,1.83-.11,3.66-.43,5.48h-41.53c.75,8.33,5.12,13,12.57,13,6.39,0,9.62-1.63,11.53-5.38l15.93-.14c-3.19,10.36-12.56,17.3-27.14,17.3ZM527.51,299.18h25.96c-.2-6.04-5.92-9.85-13.03-9.85-6.61,0-11.85,3.56-12.93,9.85Z"/>
    <path class="cls-1" d="M468.71,277.45l15.53,36.3,15.64-36.3h16.58l-24.42,57.26h-14.67l-25.35-57.26h16.69Z"/>
    <path class="cls-1" d="M596.95,277.03c9.09,0,15.32,1.61,18.69,6.21v-5.31h14.4v56.36h-14.4v-6.83c-3.37,4.8-9.81,6.83-18.79,6.83-14.3,0-25.74-11.51-25.74-28.83s11.44-28.43,25.84-28.43ZM600.63,289.35c-7.66,0-14.91,5.61-14.91,16.12s7.25,16.52,14.91,16.52,15.01-5.81,15.01-16.32-7.15-16.32-15.01-16.32Z"/>
    <path class="cls-1" d="M634.25,251.5h16.19v82.79h-16.19v-82.79Z"/>
  </g>
</svg>